/* XPM */
static char *result[] = {
/* columns rows colors chars-per-pixel */
"50 50 93 2 ",
"   c #290300",
".  c #2F0A00",
"X  c #310900",
"o  c #2A0715",
"O  c #331210",
"+  c #3D1E12",
"@  c #43260E",
"#  c #46290E",
"$  c #4B2D0C",
"%  c #583007",
"&  c #573008",
"*  c #5B340D",
"=  c #5D380D",
"-  c #452611",
";  c #492612",
":  c #462913",
">  c #4A2B13",
",  c #4A2D18",
"<  c #522F1C",
"1  c #573316",
"2  c #5E3710",
"3  c #5F3812",
"4  c #57331B",
"5  c #58331A",
"6  c #5F3A1F",
"7  c #60390F",
"8  c #613A11",
"9  c #653C1B",
"0  c #573021",
"q  c #5E3A20",
"w  c #5C302B",
"e  c #5D2E32",
"r  c #613922",
"t  c #653A2B",
"y  c #623433",
"u  c #6A3C36",
"i  c #664117",
"p  c #70511C",
"a  c #6C4327",
"s  c #6C432A",
"d  c #6F482F",
"f  c #764A27",
"g  c #70472C",
"h  c #73492D",
"j  c #784D2F",
"k  c #77502F",
"l  c #7D5628",
"z  c #724731",
"x  c #754C31",
"c  c #794E32",
"v  c #775031",
"b  c #7D5233",
"n  c #7C5539",
"m  c #92791A",
"M  c #815534",
"N  c #80553B",
"B  c #875B3B",
"V  c #8A5D3C",
"C  c #927326",
"Z  c #967629",
"A  c #98792C",
"S  c #8C603C",
"D  c #8F6241",
"F  c #916443",
"G  c #986A47",
"H  c #966B48",
"J  c #996D4A",
"K  c #9B714B",
"L  c #AB9819",
"P  c #AEA014",
"I  c #9D802F",
"U  c #D1BE0D",
"Y  c #DACE0C",
"T  c #D8C610",
"R  c #DDD117",
"E  c #FFFF03",
"W  c #FFFC0E",
"Q  c #B2845C",
"!  c #B58A5F",
"~  c #AF8560",
"^  c #BA8E63",
"/  c #BC9269",
"(  c #C09569",
")  c #C69A6E",
"_  c #C59B71",
"`  c #CA9D73",
"'  c #CCA172",
"]  c #CDA278",
"[  c #D2A776",
"{  c #D4A876",
"}  c #D3A878",
"|  c #D9AF7D",
" . c #DCB07D",
/* pixels */
"                                                                                                    ",
", > : - - - - - - - - - - - - - - : - - - - : - : - - - - - - - - - - ; - - - - - - : - : : - : , > ",
", # 1 4 4 4 5 5 4 4 5 5 4 4 4 4 4 4 4 4 4 4 4 4 4 4 4 4 4 4 4 4 4 4 4 5 4 4 4 4 4 4 4 4 4 4 4 < > > ",
"> @ 9 b h c c c c x c c c c x x x x c c h c x c c c x c x x c c x c c x c c c x x x c c x x n q @ > ",
", @ 9 v d h h x h x x h x h x h x x h h x x h x x h x x x x h x g x x h h x g z x h h h h h c 6 @ , ",
"> - q v h h h s g g g g h g g g h s h h h s g h g g g g s h s d g g g g g h g g h s h h h h c q @ > ",
"> @ r v h h h 3 8 8 8 8 8 8 8 8 3 8 8 8 8 8 8 8 8 8 8 8 8 8 8 8 8 8 8 8 8 8 8 8 3 8 8 g h h c q - > ",
"> @ q v h c s 3 * 2 2 8 * 7 2 2 = 3 2 2 = 2 2 2 = 7 2 2 = 2 8 = 2 8 * 8 7 8 8 = = = 2 h h h c q - > ",
"> @ r c h h h * * * * * * * * * * * * * * * * * * 2 * * * * * * * = * * * * * * * * 2 d h h c q - > ",
"> @ q c g g h M M M M M M M M M M M M M M M M M M M b M M M M M M M M b M M M b b M b h d d v q - ; ",
"> - q c h g h V F F S F F F F F D F F F F F F F D D F F F D D D F F F F F F D F F F S j s h c q - > ",
"> - r c h x h V V V V V V V V V V B V V B B V V V V V V V V V V V V V V V V V V V V S h d h v q - > ",
"> @ r c g z h V V V V V V V V V V V V V V V V V V V V V V V V V V V V V V V V V V V V h h h c q - > ",
"> @ r c g g g V S V V V V V V V V V V V V V V V V V V V V V V V V V V V V V V V V S V h s h c 6 - > ",
": @ q c g z h V S V V V V V V V V V V V V V V V V V V V V V V V V V V V V V V V V V V h d h v 6 - ; ",
"> @ r c f z h V S V V V V V V V V V V V V V V V V V V V V V V V V V V V V V V V V V V h h h v q - > ",
"> - q c h z g V S V V V V V S S V V V V V V V V V S V V V V V V V V V V V S V V V V V h s h v q - > ",
"> - q c h g j M M M M M M M M M M M M N M M M M M M b M M M M M M M M M M b M M M M b h d h c q - ; ",
"> @ r c h g h G K J J J J J G G J J G J J J J J J J J J J J J J J J J J J J J J J K H j s h c q - > ",
"> @ r c g a j ) [ ' ' ` ' ' ' ` ' ` ` ` ` ' ' ` ' ` ' ' ` ' ' ' ` ' ' ' ' ' ` ' ' ' _ j a d j 6 - > ",
"> @ q c h t M ) [ ' ' ' ` ' ' ' ' ' ' ' ' ' ` ' ' ' ' ' ' ' ' ' ' ' ' ' ' ` ' ' ' { _ j t h c 6 - ; ",
"> @ q c f s f / ) / ( ( ( ( ( ( ( ( ( ( ( ( ( ( ( ( / / / ( ( ( ( ( / ( ( ( ( ( ( ) / j g h c q - , ",
", - q x h h h h c h j c x x x x j h c h j h x j j j x x j j f j j j x x j j x x f j j h h h j 6 : > ",
"> - r x h h h a s s s s s s s s s s s s s s s s s s s s s s s s t s s s s s s s s a a d g g x q - > ",
"> @ q c x g z g h h h h h j h h h h h h h h g h h h h h h h h h h h h h h h h h h c d t y y u 0 - $ ",
"> @ q x z x h h h h h g g g g h h h g g h h h h s h d h h h h h h g g h h h g h h t c U Y T R m O > ",
"> - 6 b h h h h z h x g x x g g x g h x x z x g h h x d x d h h x x z h h x z h h t b E E E E P o > ",
"$ @ q x d h d x h x h h x h x x x x x h x h h h c h h x h x h x h x h g x h h x h u l W E E W L o > ",
"> - r v h x d 9 9 9 9 9 9 9 9 9 9 9 9 9 9 9 9 9 9 9 9 9 9 9 9 9 9 9 9 9 9 9 9 9 9 9 i C A Z I p + > ",
"> - q k h z s 3 * 2 7 * 7 7 7 * = 7 * 7 7 7 7 * 7 * 7 8 = * 8 = = 7 7 7 7 = 7 = = = 2 w e e y < ; ; ",
"> @ q k h h h * & * & & & & & * * & & & % % * % & & % % & * & & % % * % & % * % % % * s h h c q ; > ",
"> @ 6 k d h d f f f f f f f f f f f f f f f h f f f f f h f f f f f h f f f f f f f h h g h c r - > ",
"> @ q v h g h S G F F F F F F F F F F F F F F F F F F F F F F F F F F F F F F F F F F h g h c r - > ",
"> @ r c h g h V V V V V V V V V V V V V V V V V V V V V V V V V V V V V V V V V V S V h g h c 9 - > ",
"> - r c h g h B S V V V V V V V V V V V V V V V V V V V V V V V V V V V V V V V V S V h d x c q - , ",
"> - r c h g h V S V V V V V V V V V V V V V V V V V V V V V V V V V V V V V V V V S B h g g x q - > ",
"> @ r c g z h V V V V V V V V V V V V V V V V V V V V V V V V V V V V V V V V V V V S h g g c q - ; ",
"> @ q c g z g B V V V V V V V V V V V V V V V V V V V V V V V V V V V V V V V V V S B h g g c q - > ",
"> - q c g z h V S V V V V V V V V V V V V V V V V V V V V V V V V V V V V V V V V S B h s h c 6 - , ",
"$ @ q c f z x B V V V V V V V V V V B V V V V V V V V V V V V V V V V V V V B V V V B h h h c q - > ",
"> @ r c h h h M B M M M M M M M M M M M M M M M M M N M M M M M M M N M M M M M M M b h h h c 6 - > ",
"> - q j h s f Q ^ ^ Q ^ ^ ^ Q ^ ! ^ ^ ^ Q ^ ! ^ ^ ! ! ^ ^ ! ^ ^ ^ ! ! ^ ^ ! ^ ! ^ ^ ~ c s h c 6 - ; ",
"> @ q c h s c ` } ' ' [ [ ` ' [ ' ' ' [ ' ' ' ] ' ' ' ' ' ' ' ' ' ' ' ' ' ' ' [ ' { ` k a h c 6 - > ",
"> @ q k h s j ' | } } } } } } [ } } } { } } } } } } } } } } } } } } } } } } } { {  .] j a d x 6 - > ",
"> @ 6 v h g h K K K K K J K K K K K K K K K K K K K K K K K K K K K K K K K K K K K J h s h v q @ > ",
"> @ q v h h h r r r r r r r r r r r r r r r r r r r r r r r r r r r r r r r r r r r r d h h v q ; , ",
"> @ t N c c c c c c c c c c c c c c c c c c c c c c b b c x c c c c b b c c c c b c x b b v n a - > ",
"> > 4 r r r r q r 9 6 6 r q r 9 6 6 r q q 9 q q q q q 9 6 6 6 6 q q q 9 6 6 r q r r 6 6 q 6 q 1 ; > ",
"$ , : @ @ @ @ @ @ @ @ @ @ @ @ @ @ @ @ @ @ @ @ @ @ @ @ @ @ @ @ @ @ @ @ @ @ @ @ @ @ @ @ @ @ @ @ @ > , ",
"X . . . . . . . . . . . . . . . . . . . . . . . . . . . . . . . . . . . . . . . . . . . . . . . . X "
};
