/* XPM */
static char *result[] = {
/* columns rows colors chars-per-pixel */
"50 50 246 2 ",
"   c #206E17",
".  c #1E742F",
"X  c #2B752C",
"o  c #657C26",
"O  c #177552",
"+  c #20744E",
"@  c #ED0D05",
"#  c #FF0100",
"$  c #FF0D00",
"%  c #EB1703",
"&  c #FF1400",
"*  c #F21C03",
"=  c #FF1C00",
"-  c #DF3305",
";  c #EE2805",
":  c #FF2500",
">  c #FF2B00",
",  c #E93707",
"<  c #FF3300",
"1  c #FF3B00",
"2  c #BB7B3A",
"3  c #DA491C",
"4  c #DB5615",
"5  c #EC4805",
"6  c #FF4500",
"7  c #FA4A01",
"8  c #E75905",
"9  c #FF5300",
"0  c #FF5900",
"q  c #E15412",
"w  c #D27117",
"e  c #FE6300",
"r  c #FF6D00",
"t  c #FE7400",
"y  c #FE7C00",
"u  c #E16412",
"i  c #EA7310",
"p  c #D75422",
"a  c #CD6E2B",
"s  c #D46923",
"d  c #CA7B28",
"f  c #21961B",
"g  c #32AE18",
"h  c #3AB817",
"j  c #10882F",
"k  c #0A883C",
"l  c #18893C",
"z  c #199838",
"x  c #288C25",
"c  c #259825",
"v  c #2E8F32",
"b  c #249D3A",
"n  c #1BA72B",
"m  c #19B82C",
"M  c #1AA435",
"N  c #1CB735",
"B  c #28A928",
"V  c #3BAA27",
"C  c #3AAC2B",
"Z  c #2ABA27",
"A  c #2BB42C",
"S  c #24BD2D",
"D  c #2DBC2C",
"F  c #34BE24",
"G  c #38BA25",
"H  c #35B52C",
"J  c #3BB42D",
"K  c #34BB2C",
"L  c #3ABB2C",
"P  c #29A837",
"I  c #37AB35",
"U  c #39AA38",
"Y  c #3CAD3B",
"T  c #2BB532",
"R  c #23BC34",
"E  c #2CBC33",
"W  c #2DB43B",
"Q  c #24B838",
"!  c #2CBC3B",
"~  c #34B534",
"^  c #3BB433",
"/  c #33BB33",
"(  c #3ABB34",
")  c #34B43B",
"_  c #3AB33B",
"`  c #33BA3B",
"'  c #3BBB3A",
"]  c #5C8D1A",
"[  c #4D951A",
"{  c #54941B",
"}  c #48AA0F",
"|  c #49A61A",
" . c #7FA417",
".. c #4D8E28",
"X. c #588928",
"o. c #4A9A24",
"O. c #53942F",
"+. c #479A33",
"@. c #628C33",
"#. c #45A527",
"$. c #43AC2D",
"%. c #53AF29",
"&. c #43BB2A",
"*. c #43AC35",
"=. c #46A839",
"-. c #46B635",
";. c #55BA38",
":. c #62BB29",
">. c #66BA36",
",. c #7AB43D",
"<. c #15D817",
"1. c #15D319",
"2. c #1CDC1B",
"3. c #2ACA18",
"4. c #34C61C",
"5. c #26D619",
"6. c #22DB1D",
"7. c #30D014",
"8. c #0CE70F",
"9. c #19E90D",
"0. c #02FF02",
"q. c #0BFE03",
"w. c #08F409",
"e. c #03FF0A",
"r. c #0BFE0B",
"t. c #12FC05",
"y. c #13F30B",
"u. c #13FC0C",
"i. c #1CE414",
"p. c #13EB13",
"a. c #19E917",
"s. c #16E31A",
"d. c #1BE41B",
"f. c #15EC1B",
"g. c #04FE12",
"h. c #0BFD13",
"j. c #09F618",
"k. c #14F716",
"l. c #25E419",
"z. c #38E818",
"x. c #27F112",
"c. c #11C927",
"v. c #1BC928",
"b. c #19D526",
"n. c #1BDC24",
"m. c #2DC325",
"M. c #26CD24",
"N. c #2CCB22",
"B. c #24C62A",
"V. c #2BC32C",
"C. c #2CCB2B",
"Z. c #38C427",
"A. c #33C42C",
"S. c #26D527",
"D. c #2AD323",
"F. c #23DB22",
"G. c #36D524",
"H. c #2CC333",
"J. c #28C635",
"K. c #33C232",
"L. c #3BC332",
"P. c #35C63A",
"I. c #29D333",
"U. c #3AD933",
"Y. c #18E524",
"T. c #2DE425",
"R. c #3AE928",
"E. c #2DF427",
"W. c #48D21C",
"Q. c #47C42B",
"!. c #57C72A",
"~. c #4BD626",
"^. c #45C636",
"/. c #5BC737",
"(. c #49D636",
"). c #5CD93A",
"_. c #66CB2A",
"`. c #69D527",
"'. c #63C739",
"]. c #78CC35",
"[. c #68D637",
"{. c #44EB2F",
"}. c #5DE326",
"|. c #0D8A47",
" X c #168846",
".X c #179743",
"XX c #258845",
"oX c #289D45",
"OX c #2B8E54",
"+X c #29A846",
"@X c #34AB42",
"#X c #3BA947",
"$X c #2AB544",
"%X c #35B544",
"&X c #3BB343",
"*X c #539C41",
"=X c #7A9B56",
"-X c #44A546",
";X c #4AB945",
":X c #59BA4A",
">X c #53A951",
",X c #6FAC4D",
"<X c #67BD48",
"1X c #64B751",
"2X c #33C041",
"3X c #45C244",
"4X c #59C745",
"5X c #51D442",
"6X c #6CC84B",
"7X c #BC8F1F",
"8X c #B38F36",
"9X c #B88838",
"0X c #84BA36",
"qX c #98B433",
"wX c #AFAA2F",
"eX c #D2931D",
"rX c #FF8400",
"tX c #FE8A00",
"yX c #EC9F02",
"uX c #FE9900",
"iX c #D2AB16",
"pX c #FFB300",
"aX c #FFBF00",
"sX c #CB8E29",
"dX c #C7A730",
"fX c #81C930",
"gX c #86C439",
"hX c #E9CB06",
"jX c #FFC300",
"kX c #FFCC00",
"lX c #FFD400",
"zX c #FFDB00",
"xX c #FFE300",
"cX c #FFEC00",
"vX c #FFF400",
"bX c #FFFF00",
"nX c #97914E",
"mX c #AA8B44",
"MX c #A69B49",
"NX c #B59B41",
"BX c #99A848",
"VX c #88B946",
"CX c #8CB04D",
"ZX c #93A552",
"AX c #AAA847",
"SX c #8FC347",
/* pixels */
"2.w.e.1.C D A n P Q.Q.A M M I V P M n n n M M Z.W.A D Z D S B c A S V B K Z A C.x.Z.T A S 2.8.0.w.1.",
"q.q.r.3.W K.W k P ].W.A n k |.k k XXz k +  X X:.7 8 T L H ^ ( %XE m.H H E K I n.0.3.-XT K r.q.g.5.V ",
"0.2.v.^ =.#.V +X/ &.( / &.!.A A A A W J.w.8.Y.Z.5 5 J.) M.a.d.a.A.$X!.!.' K ~ ' J.8.d.Y.a.0.y.v.V.( ",
"0.S.-XA.N.o.o.( B.Z $X~ !.`.Z.K ` V.) I.q.t.u.v.5 8 F #XF.0.r.q.3.#X~.!.) ` D D -X9.0.k.q.e.T.-X) / ",
"0.z.fXx.e.` Y G E ! / H ) ~ I %X` ( E V [ :.`.x.8 8 R.>XM.0.F.` | [ ^ ) OX+XL.D -Xs.0.q.j.E L ] C H.",
"g.G.:.6.j.n.m.D ` #.G _ J.b.M.C.^ ~ m.H +.%.'.6.w 1 : u S.l.J.@X=.#.5.4X@ mXI H ^ G.x.e.j.&X=.| g Q ",
"0.<.@X#XP.g.y.%X=.] =.%Xi.q.r.0.V.$XA E %XK m ) u 6 1 w 2.U H _ =.) u.{.= MX  c H./.[.u.h.R ) P.P k ",
"n.4./.I c y.g.5.N.+.A.s.p.r.c.R J -.!.( R Z.!.F u 1 & d 9.#XC.l.2.s.q.R.= nXb A / &.;.7.F.A.) B .Xl ",
"+X/.].g . y.r.e.j.#XS.0.e.h..XO ~ L.].!.m !.].' 4 7 rXiX).,Xn.0.0.g.q.{.= MX( H.E E T ~ ~ L.$Xl  X X",
"L.T b v l / D.e.u.9.w.0.5.H ` R H.` &.( R / A.&.4 9 bXbX# 3 2.q.b.D A.4X& BXV./ T _ =.P b n z |.P U ",
"/ B k .Xz #X/ y.j.q.t.f.C.-X/ L K K T T ( E R U 4 9 bXvXtXeX6XE.P.*.) 1X= MX%XW m.C.B.z  XXXz .XP Z.",
"j |.|.T ^.H.V.-XV.0.F.) m.E f X ' C./ / / ~ / R ; 1 bXbXbXcX# w ~._.Q.1X@ 9X_ d.r.h.g.XXl J.( C D.h.",
"z b P B A P P A.C.0.b.-X<XCXB c @XW ^ / K / J L ,XAXyXpXbXcXuXiXCX6XY P =X>X_ b.s.w.e.m N C -.I.a.e.",
"&X-.` .X X+ z e.0.r.Y.Y 9X# 6XL.l XX~ ) ` N F ,.6Xg.- 1 bXbXbXcX# s .Xz ( / L.oXO <.q.e.k.o { e.r.g.",
"i.i.l.A b B.b.0.y.2.3.) MX= >Xc c.1.i.3.CXZX! G.z.7.5 0 bXbXbXzX: 9Xv z A.E A.C oXB.s.k.t.3.7.0.p.n.",
"q.e.r.C.^ k.r.0.i.U J ` ZX& O.. 0.e.u.a.5 ; _ 0.0.] 5 0 bXbXbXlX: mXx x L ` / ( Z.=.@Xj.0.e.g.q.d.*.",
"K.Y.0.y.Y.0.q.S.-.@.>XnXw > :X$XB.S.e.h.w 5 9.e.h.K 5 9 bXbXbXlX: 8Xl b ~ / / ! D ) / M.F | 4.e.a.*.",
"-.b.w.r.h.w.F.&XC ..mX$ 6 1 1X&.@XK y.e.w 5 0.9.l.J., 6 bXbXbXzX: 8X.Xz E / H K L E / ^ @Xo | 0.6.Y ",
"H _ ~ y.r.C.^ / T l nX> 7 < ;XT / D #XF.sX5 wXMXmX8XhXkXbXbXbXzX= 9X` E E P k P ( / ! H.W . f 0.F.-.",
"D ( J 6.f.H.) P.P .XnX; 6 1 4XL.H m.-XZ.7X1 : : & 1 bXbXbXbXbXxX* sX/ ' ^.~ z Q H.F G K ) v A 0.5.*.",
"` Q J.I C ` / K.P k P -.8X: SXgX#X) / S s < kXxXkXzXbXbXbXcX9 sX'.0X-.F [.!.F _ *.A S U H *.Z.e.G.{ ",
"~ &.!.( ! / ~ m.~ P L ~.MX& 5Xz.d.2.K E s , bXbXbXbXbXbXbXzX# 9Xl.l.H.E Q.&.;.Z.f.Q.:X! v.s.i.e.7.+.",
"E ^._.^.R K K V.( ( Q.`.NX$ E.0.0.y.*.) D !.i r vXbXbXcX0 d I.q. .gXC.&XA ( ].R.0.W.].' ! t.e.h.9.-.",
"K.A.G ^ #X_ I o.#.F ) >XqX; E.q.M.` ( J o.$.p < vXbXbXxX= 7Xe.0.* d x x ) L.Z.V.D a.u.&.-X0.p.#.| K.",
"` H A V.C.M.V.[ #.K H.Q k.0.j.d.NXp ' J o.H s 6 vXbXbXxX: 7Xw.f., 9Xx c ) / S W *X2.e.M.K 0.6.@.C J.",
"j oXP.j.0.e.f.-.-X@Xn.0.0.q.B.&Xd & ;X$X$.a.w 6 vXbXbXxX6 7Xb.;.: 9XH.%X/ H _ _ K E ^ h.e.q.s.( D / ",
"z U $.5.a.q.e.M.C.M.6.l.5.D.V.Y 9X: ' / ^ S.s 6 vXbXbXbXvXhX4 q < 8XB.K _ <X, CX/ D ) S.i.r.l.) E H ",
"^.h [ *X/ u.q.e.0.0.5.Y ^ H A._ 9X: ' F _ T s 6 vXbXbXbXbXcX6 6 < 9XY m.( 4X$ CX%XK ( -X/ 0.u.Y K P.",
"` W ~ C E J.d.e.0.0.I.#X3./ ) _ 8X: 4X&.W ( 4 < vXbXbXbXbXbXvXzX: wX$X) +.<X= VXW V #.^ B.m N ` / / ",
"^ K / / _ -XE r.r.q.2.~ ~ ) / A sX: ].!.R L w e vXbXbXbXbXbXbXxX: wX! -XX.,.& VX) #.o.L $X+ OXK./ E ",
"j.B X <.r.H.H / D.e.b.l P ~ NX* 5 6 ^.F a , vXbXbXbXbXbXbXbXbXxX# d h.e.i.).& VX=.~ B.J / E D V.*.{ ",
"0.v.X s.j.Z.-.Y M.h.N + ~ Q.dX9 9 5 _ H a < vXbXbXbXbXbXbXvXkXhXa ZX8.w.0.{.& VXH _ / H H H / J.V X.",
"w.k.k.S.H _.'.L H B.` #XNX* kXbXr % { #.a & xXbXbXbXbXbXbXzX= d %XQ X x g.E.# ZXB.+.] J.) ] X.) ~ P ",
"0.h.r.N.&X&.-.K _ _ V./ NX= kXbXuX8 ,X;.sXr vXbXbXbXbXbXbXzX: 9X2XQ.v b E.gX9 AX;XC $.! E h 3.3.S.n.",
"r.0.0.N.) T / V.` ` B.T MX# jXbXbXbX6 # cXbXbXbXbXbXbXbXbXzX$ 9X!.`.;.;X% y bXpX@ ZX/ =.M.g.e.r.q.u.",
"F.4.4.-.&X` H E T x =.:XwXe zXbXbXbXuXr cXbXbXbXbXbXbXbXbXcXr sX6X4X(.gX0 pXbXpX$ 6Xp.#.C B.i.0.q.0.",
"I O.X.C J._ ~ P.I   mX# kXbXbXbXbXbXbXbXbXbXbXbXbXbXbXbXbXbXbXzX# & # r bXbXbXpX& [.r.} O.=.V.k.y.e.",
"A ` *.p.0.t.q.y.n.P BX& jXbXbXbXbXbXbXbXbXbXbXbXbXbXbXbXbXbXbXcXtXtXrXpXbXbXvXpX& SX'.L A /./.E 2.0.",
"S R / d.t.y.k.0.f./ 0X& aXbXbXbXbXbXbXbXbXbXbXbXbXbXbXbXbXbXbXbXbXbXbXbXbXbXbXpX$ VX,.H.H.!.!.P J.k.",
"K.J #X( F @XK.q.0.q.SX& aXbXbXbXbXbXbXbXbXbXbXbXbXbXbXbXbXbXbXbXbXbXbXbXbXbXbXpX& SX].&.J.H./ E E J ",
"$XV.5.H.#X-.L.F.f.r.qX# kXbXbXbXbXbXbXbXbXbXbXbXbXbXbXbXbXbXbXbXbXbXbXbXbXbXbXjX# BX;./ T V A H E / ",
"U s.0.2.-Xm.D #XJ.e.E.).dXrXxXbXbXbXbXbXbXbXbXbXbXbXbXbXbXbXbXbXbXbXbXbXbXzXrXwX).Q.I ! &.] o./ ^ J.",
"6.T.~.A._ M M ) H.C.9.0.mX# jXbXbXbXbXbXbXbXbXbXbXbXbXbXbXbXbXbXbXbXbXbXbXpX# ,X0.M.Y ` ) / K E J O.",
"0.z.0X%.R .X XF ( @X5.e.5X,XdXt xXbXbXbXbXbXbXbXbXbXbXbXbXbXbXbXbXbXbXzXt wXZXP.0.S.*.E / / / H.V [ ",
"0.z.fXQ.J.l z ` H.R :.}.A.W 9X# lXbXbXbXbXbXbXbXbXbXbXbXbXbXbXbXbXbXbXjX# nX#X5.0.N._ H.&.o.#.Y D.t.",
"p.G.;.C T z B ) J B ;.'.K.E ;X:XdXt tXrXtXtXtXtXtXtXtXtXtXtXtXtXtXtXt dX,X;.K s.0.Z.=.A V o.V ) n.0.",
"$X+Xk |. XC.L ..X.{ U / R R ) #X2 # = : = = = = = = = = = & : * = = # mX[ h u.e.q.h X.X . ` / U n.0.",
"Z.P b P P ) D 3.h $.H ! &.:.D.n.S.^.,X-X>X3XU.~.U.3X;X4X'.<XR.E.(.^.3X&X+.Z.e.p.d.D =.g c.~ H b.G.x.",
"( ( ( ( ! *XK 0.g.E A.( >.`.q.0.0.j.Y G _ f.e.H.#XH G '.`.fXz.0.q.e.J @X*.C.r.I.I J / 0.h.-XL 0.E.qX",
"O.1.y.d.a.a.Y.I.! b b .X( ^.n B L.n.a.i.l.w.r.3.` ` K.L.&.-.K.S.9.u.Y.l.l.p.0.s.Y H ! H.I.F.p.q.6.&."
};
