/* XPM */
static char *result[] = {
/* columns rows colors chars-per-pixel */
"50 50 228 2 ",
"   c #000000",
".  c #0D0702",
"X  c #0C0B01",
"o  c #080409",
"O  c gray5",
"+  c #1E0F05",
"@  c #081906",
"#  c #061C08",
"$  c #181818",
"%  c #221106",
"&  c #022402",
"*  c #2F2F2F",
"=  c #363636",
"-  c #47240B",
";  c #6C3013",
":  c #257015",
">  c #2C4F2C",
",  c #27752D",
"<  c #306732",
"1  c #3C6E3C",
"2  c #3C723C",
"3  c #387A3A",
"4  c #434000",
"5  c #55591D",
"6  c #6F760F",
"7  c #436C39",
"8  c #47753A",
"9  c #57773A",
"0  c #5F2B60",
"q  c #672E68",
"w  c #783679",
"e  c #386B43",
"r  c #3B7446",
"t  c #2B7754",
"y  c #416C41",
"u  c #487942",
"i  c #547D41",
"p  c #6A6A6A",
"a  c #7C7C7C",
"s  c #832B08",
"d  c #803916",
"f  c #804014",
"g  c #864616",
"h  c #944C14",
"j  c #A25019",
"k  c #B4571D",
"l  c #BC5D1D",
"z  c #827C00",
"x  c #A8720F",
"c  c #BC6C21",
"v  c #CA641F",
"b  c #FF6F1A",
"n  c #DC732C",
"m  c #F2652C",
"M  c #FF6B2E",
"N  c #F27825",
"B  c #FD7927",
"V  c #FF7F27",
"C  c #FF762A",
"Z  c #FF7935",
"A  c #35B019",
"S  c #0D8A33",
"D  c #08883C",
"F  c #178B3E",
"G  c #199936",
"H  c #2A8A27",
"J  c #2B8B2C",
"K  c #2C952E",
"L  c #2D8433",
"P  c #328333",
"I  c #378536",
"U  c #219D3D",
"Y  c #1BA72B",
"T  c #19A535",
"R  c #1CB931",
"E  c #25A929",
"W  c #37A929",
"Q  c #3AAB2B",
"!  c #28B72C",
"~  c #2CBC2C",
"^  c #34BC24",
"/  c #34B52D",
"(  c #3BB42D",
")  c #34BB2C",
"_  c #3ABA2C",
"`  c #2FAC31",
"'  c #29A738",
"]  c #38AB38",
"[  c #29B636",
"{  c #2DBC33",
"}  c #2CBC3B",
"|  c #34B534",
" . c #3BB535",
".. c #33BB34",
"X. c #3ABA33",
"o. c #34B33B",
"O. c #38B43B",
"+. c #33BA3A",
"@. c #548F1A",
"#. c #56921A",
"$. c #44AE1E",
"%. c #578927",
"&. c #499923",
"*. c #50902F",
"=. c #479731",
"-. c #42A728",
";. c #4DB427",
":. c #45AA36",
">. c #46B835",
",. c #57BA36",
"<. c #69BE32",
"1. c #1CC91A",
"2. c #16D718",
"3. c #1BDD1B",
"4. c #2BCA17",
"5. c #35C71B",
"6. c #25D81A",
"7. c #0FE50F",
"8. c #1AE80D",
"9. c #08F406",
"0. c #02FF02",
"q. c #0CFE04",
"w. c #03FF0B",
"e. c #0CFE0B",
"r. c #14FB09",
"t. c #18EA15",
"y. c #1BE41C",
"u. c #04FF13",
"i. c #09F915",
"p. c #14F715",
"a. c #2FEA0F",
"s. c #25E619",
"d. c #13C720",
"f. c #1AD824",
"g. c #2CCC22",
"h. c #2BC32C",
"j. c #27CA2A",
"k. c #36C429",
"l. c #27D624",
"z. c #35D327",
"x. c #2DC333",
"c. c #29C535",
"v. c #35C336",
"b. c #33D133",
"n. c #1BE324",
"m. c #2AE822",
"M. c #39E328",
"N. c #4FC71C",
"B. c #49C529",
"V. c #56CC2A",
"C. c #45C73D",
"Z. c #58C735",
"A. c #6BCF2D",
"S. c #0C8944",
"D. c #198746",
"F. c #189545",
"G. c #249048",
"H. c #2DAB46",
"J. c #3AAA44",
"K. c #38B643",
"L. c #4F964E",
"P. c #599847",
"I. c #47A748",
"U. c #51A74B",
"Y. c #44B945",
"T. c #4CB44A",
"R. c #4BA855",
"E. c #52A554",
"W. c #6CB046",
"Q. c #33C041",
"!. c #958D00",
"~. c #B3AD09",
"^. c #BCB200",
"/. c #BCBC00",
"(. c #88BA2D",
"). c #FF891C",
"_. c #FF9D1D",
"`. c #C2B800",
"'. c #FFA01C",
"]. c #F9B712",
"[. c #FFB914",
"{. c #FF8425",
"}. c #FF8B27",
"|. c #FF822C",
" X c #FF952D",
".X c #FF9A29",
"XX c #FF8534",
"oX c #FF8931",
"OX c #FF9935",
"+X c #FFB02B",
"@X c #FFA735",
"#X c #82C72D",
"$X c #FFCA16",
"%X c #FAE705",
"&X c #FFEB02",
"*X c #FFF101",
"=X c #FAF607",
"-X c #FFFE00",
";X c #F6E819",
":X c #FFFF1D",
">X c #9D9A79",
",X c #CBA140",
"<X c #FFF768",
"1X c #FFFF77",
"2X c #863C87",
"3X c #9B459B",
"4X c #9F48A0",
"5X c #AD4EAE",
"6X c #C95ACA",
"7X c #E165E3",
"8X c #808080",
"9X c #9D9D9C",
"0X c #A29B97",
"qX c #9298AE",
"wX c #ACACAB",
"eX c #BCBCBB",
"rX c #FFF5A3",
"tX c #FFFBAA",
"yX c #FFFDB9",
"uX c #DCD6D2",
"iX c gainsboro",
"pX c #FFFCD3",
"aX c #DCE5EA",
"sX c #FFFEE5",
"dX c #F2F2EE",
"fX c gray95",
"gX c #FFFAF3",
"hX c white",
/* pixels */
"3.9.0.1./ ~ ! Y ' B.$./ T T ` Q ' T E Y Y T T _ B.! ! ~ ~ ! E K ! ! W W ! ~ ! j.a.k.[ ! ! 2.7.0.9.2.",
"q.q.e.g.} x.' D H.A.B.h.T S S.D F D.F D D.D., Z.A...[ _ _ ( ..+...h.^ / { ^ o.n.0.4.I.] / e.0.e.6.` ",
"0.3.1.| I.7 7 e 2 8 2 2 8 8 1 1 1 2 r 3 L L L 8 8 8 2 1 3 P I P 3 r 8 8 2 2 2 7 2 L 3 L t.0.9.j.h.X.",
"0.l.I...k.@                                                                           & q.w.m.I.] v.",
"0.M.A.a.w.@                                                                           & p.x.X.%.Q x.",
"e.U.9 I , &     p eXeXeX^.^.^.^.^.^.^.^.^.^.^.^.^.^.^.^.^.^.^.^.^.^.^.^.^.^.^./.5     & , y y *.A [ ",
"0.>             wXhXhXhX=X-X-X-X-X-X-X-X-X-X-X-X-X-X-X-X-X-X-X-X-X-X-X-X-X-X-X-X!.      o     1 ' D ",
"f.I       O O O 9XgXgXsX=X&X&X&X&X&X&X&X&X&X&X&X&X&X&X&X&X&X&X&X&X&X&X&X&X*X*X-Xz . . .       L.F.F ",
"H.8     * dXdXdX<X=X=X;X}.V {.{.{.{.{.{.{.|.{.{.{.{.|.{.{.{.{.{.{.{.{.C }.&X*X-X].m N N +   o r F.D.",
"k.r     = hXhXhX<X&X-X&XB M C B V XXV |.|.V |.|.|.|.V |.|.|.Z |.V C b b b &X-X-X[.Z  X}.+     t ' ] ",
"k.e     * hXhXhX<X&X-X%X{.C {.N N N N N N N N N N N N N N N N N N V oXZ  X*X-X-X[.M |.{.+     r ] k.",
"S e     * hXhXhX<X&X-X%X{.C  Xh . . . . . . . . . . . . . . . X . 0XgXgXpX*X&X-X[.M |.V +     u 1.u.",
"U 1     * hXhXhX<X*X-X%XV C  Xd                                   qXhXhXgX*X*X-X[.M |.V +     L.n.0.",
"X.y     * hXhXhX<X*X-X%X{.C  Xg       o o o o o o o o o o o       9XhXhXsX*X*X-X[.M |.V +     ` e.u.",
"t.I     * hXhXhX<X*X-X%X{.C  Xg       2X5X3X3X3X3X3X3X3X5Xw       9XhXhXsX=X*X-X[.M {.{.+     ` t.n.",
"r.K     * hXhXhX<X*X-X%X{.C  Xg       5X7X6X6X6X6X6X6X6X7X4X      9XhXhXsX*X*X-X[.M |.V +     Q y.] ",
"v.I     * hXhXhX<X&X-X%X|.C  Xg       q 3Xq w w w w w w 3X0       9XhXhXsX*X*X-X[.M |.{.+     ` t.:.",
":.I     * hXhXhX<X&X-X&X{.C  Xg                                   9XhXhXsX*X*X-X[.M |.V +     ` 6.O.",
") u     * hXhXhX<X*X-X&XM M XX;                                 X qXhXhXhX=X*X-X[.M {.{.+     ` l.>.",
"~ 2     * hXhXhX<X*X*X&X_..X+Xx 4 4 4 4 4 4 4 - 4 4 4 4 4 4 4 4 4 >XyXyXtX*X&X-X[.M |.V +     ` 6.:.",
"+.r     = hXhXhX<X*X*X*X-X-X-X-X-X-X-X-X-X-X-X-X-X-X-X-X-X-X-X-X-X=X&X*X*X*X=X-X[.M |.{.+     ` z.#.",
"..8     = hXhXhX1X-X-X-X-X-X-X-X-X-X-X-X-X-X-X-X-X-X-X-X-X-X-X-X-X-X-X-X-X-X-X-X$XZ OXOX%     ` 6.&.",
"! L.    $ 8XE.2X,X$X[.[.[.[.[.[.[.[.[.[.[.[.[.[.[.[.[.[.[.[.[.[.[.[.[.[.[.[.[.$X~.s d f .     ] 8.>.",
"x.8       o $   s XXM M M M M M M M M M M M M M M M M M M M M M M M M M M M M oX; o           i $.b.",
"` >             k @X@XOX.X.X X X X.X X X X X X X X X X X XOX X.XOX X X XOX X@X+Xj             7 Q c.",
"D J.R.v...&     - g ; g f f f f f f f f f f f g f d f f f f f f f f f f f f ; g -     & v.b.Y.T.~ | ",
"G ] -.3.p.&                                                                           & y.e.m.O.{ _ ",
"C.$.@.P.Y.&                                                                           @ ) 0.r.] / X.",
"o.[ / / ~ T.K.b.b.b.T.E.I.E.E.u       p >Xa p 6 z #.g d g ;       I E.E.P.U.b.Y.E.P.P.U.j.R R o.+...",
" ./ ..{ O.I.{ e.e.q.3.| / O.{ Y.      hXhXhXpX-X*X-X[.XX@XN       p.v.:.%.$.0.f.J.W &._ } t G.} ..[ ",
"i.E < 2.e.x.| ..l.0.f.S ' ..V.W.      iXhXhXtX&X*X-X_.M  Xv       C.i.w.y.s.q.y.:.| { ( / } ! j.:.#.",
"w.1.L 2.e.k.>.J.g.i.R t | k.N.W.      iXhXhXtX*X*X-X_.C  Xv       > P J H J J 3 1 1 2 2 ) ) ..c.Q %.",
"e.p.p.l./ A.Z._ | h.+.J.V.V.&.P.      iXhXhXtX*X*X-X_.M oXv                           # O.%.%. .o.' ",
"0.i.e.g.o.>.,.^  .o.h.+.Z.A.:.P.      iXhXhXtX*X*X-X_.C  Xv               o           @ h.A 4.6.l.f.",
"e.0.0.z.o.[ / h.+.+.j.{ Z.A.:.U.      iXhXhXtX&X*X-X_.M }.v       6 /.^.~.eXeXeXp     @ j.u.q.e.q.r.",
"f.5.5.:.K.|  .} ! H K v.M.s.n.v.      iXhXhXtX*X*X-X_.M  Xv       `.-X-X:XhXhXhX9X    @ Q j.8.0.q.0.",
"] *.%.Q c.O.| v.` : =.+.8.0.u.b.      iXhXhXtX*X-X-X_.M  Xv       !.=X%X;XdXfXfXa     @ *.:.h.p.r.w.",
"....:.t.0.r.q.r.l.G.6.p.0.q.B.U.      iXhXhXtX*X*X-X_.M  Xv       . X X X o O O o     @ / Z.Z.} f.0.",
"! h.} y.r.i.p.0.p...8.0.e.t.x.R.      iXhXhXtX&X*X-X_.C }.v                           # h.V.Z.` h.p.",
"x.( J./ k.] ~ q.0.q.e.w.c.] h.E.      iXhXhXtX*X*X-X_.M  Xv       X X X X O O O o     @ { x.{ { x. .",
"K.j.l.h.K.:...l.t.e.q.0.j.:.X.E.      iXhXhXtX&X*X-X_.C  Xv       !.%X%X;XdXfXdXP.O   # ..A Q ..{ ..",
"] t.0.f.I.g.~ J.c.u.0.q.b.] x.R.      aXhXhXyX-X-X-X_.M }.v       ~.-X-X:XhXhXhXqXo   # ( #.&...X.+.",
"6.l.V.j.] T T K.c.j.8.0.l.] x.R.      uXgXgXrX%X&X-X_.M  Xv       !.-X&X;XgXhXgX2X    # X. .) x.( &.",
"0.M.(.;.[ F.F.^ ..J.6.w.j.] _ U.      n OXXX|.{.{.{.{.V oXv       j .X{.{.oXoXOXh @   & ....+.x.W #.",
"0.a.#XN.} G G ..c.{ N.A.v.| ..U.      b _.).}.oXoXoXoX X@XN       l @XoXoX).).'.h     # _ &.-.] l.q.",
"i.z.,.( [ G Y ] ( / ,.Z.v.{ | T.      j c l l l l l l l c h       ; c l l l l c ;     # Q &.Q o.f.0.",
"Q.G.S.S.D.h._ %.%.#.] ..{ { o.E.                                                      O , O. .] f.w.",
"k.' U ' ' +.^ 4.^ Q / [ C.;.l.I.                                                      # d.[ _ f.z.a.",
"X.X.X.X.+.I._ 0.u.x.x./ <.A.q.s.J J y 7 y P J 2 y 1 8 8 9 9 I J J K 8 e 7 3 K 3 e 7 2 J i.I.k.0.m.(.",
"=.6.9.y.y.y.n.z.} G H.F._ C.Y E v.n.y.8.s.w.q.g.+.+.{ v.B.,.x.f.8.r.n.n.6.8.0.y.] / } v.l.l.t.w.m.;."
};
