/* XPM */
static char *result[] = {
/* columns rows colors chars-per-pixel */
"50 50 91 1 ",
"  c #0C2D36",
". c #0F3139",
"X c #10343C",
"o c #0B3643",
"O c #0C3946",
"+ c #0D3D4B",
"@ c #103B46",
"# c #103E48",
"$ c #0F404E",
"% c #11424F",
"& c #0C4A5F",
"* c #124452",
"= c #154956",
"- c #1D4956",
"; c #144C5B",
": c #194E5B",
"> c #13505F",
", c #19505C",
"< c #204E5B",
"1 c #22515E",
"2 c #0E4E63",
"3 c #114F62",
"4 c #0F5065",
"5 c #115266",
"6 c #12556A",
"7 c #155A6D",
"8 c #195D6E",
"9 c #165D71",
"0 c #185F72",
"q c #2B5661",
"w c #2D5965",
"e c #325A66",
"r c #355E6A",
"t c #1A6275",
"y c #1C6679",
"u c #1E697B",
"i c #36616C",
"p c #3C626D",
"a c #236275",
"s c #266778",
"d c #226C7D",
"f c #2A6B7D",
"g c #396571",
"h c #3C6A75",
"j c #316D7D",
"k c #42636F",
"l c #426571",
"z c #456A75",
"x c #456E79",
"c c #496F7A",
"v c #47707B",
"b c #4B737D",
"n c #53757F",
"m c #216E80",
"M c #376F81",
"N c #237182",
"B c #2D7283",
"V c #347181",
"C c #3B7585",
"Z c #3B7789",
"A c #3E7B8B",
"S c #467484",
"D c #447B8B",
"F c #4A7C8C",
"G c #557681",
"H c #567883",
"J c #597B85",
"K c #487F90",
"L c #657F89",
"P c #42818E",
"I c #4B808E",
"U c #428292",
"Y c #4C8393",
"T c #4E8897",
"R c #538593",
"E c #518896",
"W c #598997",
"Q c #528B9A",
"! c #5B8B9A",
"~ c #56919F",
"^ c #65848D",
"/ c #738E97",
"( c #76939B",
") c #7A959D",
"_ c #7A99A0",
"` c #779DA9",
"' c #789EAA",
"] c #7BA3AE",
"[ c #7CA6B1",
"{ c #8FA8AF",
"} c #90A8AE",
/* pixels */
")}}}{(((_((((((((_(((()[[]{]`[]]]][[['[][][][['[]]",
"L((/^nGnJGGHHHGGGJnnHGH!WW!RR!!!WRW!!R!!W!W!!!R!!!",
"nJJnk1w1ewqewqqqqwqqqwqjMfVVjjBffjfVCfjjjfjjjVjBjj",
"Gbvh1%;,:=-3:*+3;=-:==:0yumuddud9suuusuyd8uuduuuuN",
"cczi1O%+*+*+;+O*+*+*++=5t49t979t67999975u5767t997d",
"bvxh1#;***;*3*+=+==*=;;7yttytuyd6t9tytyyd7tyttyttN",
"zzpr-o++##+++#O++@+++O+55655654t4446564474&455662t",
"zvzi1%%%*++++**++*+++*=078t56879t7996699tt88976778",
"lGcg1;**3**:=*=;*;$$===ty9ut7uyttyymt6yyytytyt7uut",
"zbzi1*++:#+**+*+*=$+**$tt7y74tttt99yt6t999t9tt49t9",
"kvzr1**+=#++**++$=O+*$$979y42799969t94t99999t72799",
"zczr-+*#=*++*+++$**+*$$697t76977677tt69976878t7977",
"bbch<*:===;=:*+;;;==;==tyyyyyyuu9yuuyyyyu7tytyuyud",
"vcgg<O*+*+*+*++*$*$%+$*6t79999tt49999t66t66999t79u",
"bbzh<+;;**=*=*+==******7yutttttt6tttty9ty6tuyttttd",
"zzlr-o#+++++++o+O+++++$467666667446466669447667440",
"zbzi1*$%*$$$$*$$**+$%%*070t6707tt89t66t7tt88t66t80",
"zbxg1===,**===;=;,%*;&=yyyN97uyyyyuNy9uyttyumt8uyu",
"lbzi1=*$;$$*$*$*%=++***907u84t79899tt6tt99t7tt4y97",
"zbxp,=**=$$=**$**;++***yttu66yyt97tu05yttttttt6yy0",
"lzle-$+O%$O$$$OOO$+O+OO665762664644784666566474454",
"ERIPs60tttt0t65ttty9tytO**===***6tt9tt9tt67tyttt0u",
"ETPPs600t00ty04ut99t79y$*$=$***=69t9tt96u697tttt9m",
"TTIUd6t79tt0ut6t8ttt9tu$=$$=***=699t9tt9u79t7ttt9m",
"IFDZa&876665t0&65665660O$$$$$$+*26447766924776765u",
"FEIAd8t907t08t00t90000t*%$$$$$$*t9tt77t9tt7tt77000",
"F~TUButtdtyuyyutud0tudy==*,$*===uuymt9uuuuuyut9muu",
"S!FZd976y06t07tt0y65t00*$$=$+=**9t9tt4t99997992009",
"DQYAfyttu70tty00tu76utt***=$+**=t7tyt6yttttyyt5yy0",
"SFDMa655065556454064665$$$$$o$O$446784766666685655",
"EEYAa7y0ty0tu77ttttt0097t0ttt0t0$=*=****=+%**=***;",
"EYYUs6ytttttd75yuttt0tu7ttttttyuO*=**=$*=$$******:",
"EKFKa6uu00t9y75y9tt979t6tyttt97t+$****$$=+$==***+;",
"YYFAa2t099770620787999t4tt77t77tO$$$$$$$$++=*$$++=",
"FYACs56555666757765665t65566664t$O++O$$O$$OO++++O*",
"FQYABuyud9tyyyuyud79yytutud77yyt;*=>*$;=====;*+==;",
"SEFZs909u77969097y66t999t8u76t69**$**+*$***$=*+*#+",
"DQYAmyt0u89ytt9ytu77ytttttd86ytt$**=*+;*****=*+==*",
"SRDMa765t64666325t62764766942766$o+*$O$O++$+O$O+##",
"EYIPs7tttytty77ttyt0ttt7tttttttt$*$*=**=*$***=*=**",
"ETYUs7tyutuyut6uytty9yu8ttytuytd+*=**=*$>$**=*=;*,",
"TYKAd6t6t099u96t99t999u6t69t99tu+*$****+=+*$$*$*%:",
"TYKKa5y98999ut2t79t999t5ttttt89u+*+*****=+O**$**+5",
"KFDCs67666767857766776t76766665t++++++$O$$O$$+$O+*",
"F!YUBsttu9tytuyttu89yyuyttu79uty=**=*$;==;===*$==*",
"S!UZd076u69999999y66t99996y64y99***=$+***$$$$*+**#",
"FQYAfyt9u89ttytttu96ytttttu75tut***=*$=**=**&*O**=",
"xKDjt664t44556545942666664t4&656+++++O$++O++++o++@",
"CCj03=3;55:;;;=3;5;;;;;&,;55;;:;oooOOoOoo.Ooo@ooo@",
"Vu88*@*%#%%%=#@*=%%%%%%#%%%%%%**        .     X  X"
};
